    <svg
      id="mgl-svg"
      data-name="mgl-svg"
      xmlns="http://www.w3.org/2000/svg"
      viewBox="0 0 227.27 110.01"
    >
      <g id="mg-logo">
        <path
          class="mgl-background"
          d="m227.27,43.56v22.89c0,24.06-19.5,43.56-43.49,43.56h-18.26v-.03h-33.65v-63.43c0-11.48-4.8-18.15-15.02-18.15-10.85,0-16.9,8.97-16.9,21.7v59.88h-34.01v-63.43c0-11.48-4.8-18.15-15.03-18.15s-16.9,8.97-16.9,21.7v59.88H0V3.15h32.55v15.23h.63C39.85,7.32,50.08.02,65.52.02c13.98,0,24.62,7.3,30.05,18.78h.41C104.33,5.86,115.81.02,129.58.02c11.46,0,20.2,3.69,26.24,10.13,7.56-6.33,17.31-10.15,27.96-10.15,11.99,0,22.88,4.89,30.71,12.78,7.89,7.83,12.78,18.78,12.78,30.78Z"
          fill="#060606"
        />
        <path
          class="mgl-foreground"
          d="m158.12,80.98c-5.66-6.21-8.76-14.79-8.76-24.74s3.47-19.26,9.68-25.47c5.39-5.48,12.96-8.67,22.37-8.67,16.8,0,26.84,8.95,28.94,22.64h-15.7c-1.19-5.29-5.57-9.31-12.69-9.31-10.77,0-16.16,8.95-16.16,20.81s6.21,20.81,16.43,20.81c8.49,0,13.51-5.66,14.15-11.41v-.18h-12.23v-11.87h27.21v35.06h-11.32l-.91-7.85h-.18c-4.29,6.66-10.68,9.31-18.53,9.31-9.31,0-16.89-3.29-22.28-9.13Z"
          fill="#dbe4e5"
        />
      </g>
    </svg>